<svg xmlns="http://www.w3.org/2000/svg" width="70" height="70" viewBox="0 0 70 70"><defs><clipPath id="hbr2a"><path fill="#fff" d="M34.422 17.219c10.14 0 18.36 8.22 18.36 18.359 0 10.14-8.22 18.36-18.36 18.36-10.14 0-18.36-8.22-18.36-18.36 0-10.14 8.22-18.36 18.36-18.36z"/></clipPath><clipPath id="hbr2b"><path fill="#fff" d="M34.422 9.187c14.575 0 26.39 11.816 26.39 26.39 0 14.576-11.815 26.392-26.39 26.392-14.575 0-26.39-11.816-26.39-26.391 0-14.575 11.815-26.39 26.39-26.39z"/></clipPath><clipPath id="hbr2c"><path fill="#fff" d="M35 0c19.33 0 35 15.67 35 35S54.33 70 35 70 0 54.33 0 35 15.67 0 35 0z"/></clipPath></defs><g><g><path fill="#fde5d1" d="M34 25c6.075 0 11 4.925 11 11s-4.925 11-11 11-11-4.925-11-11 4.925-11 11-11z"/></g><g opacity=".25"><path fill="none" stroke="#fde5d1" stroke-miterlimit="50" stroke-width="2" d="M34.422 17.219c10.14 0 18.36 8.22 18.36 18.359 0 10.14-8.22 18.36-18.36 18.36-10.14 0-18.36-8.22-18.36-18.36 0-10.14 8.22-18.36 18.36-18.36z" clip-path="url(&quot;#hbr2a&quot;)"/></g><g opacity=".08"><path fill="none" stroke="#f9895d" stroke-miterlimit="50" stroke-width="2" d="M34.422 9.187c14.575 0 26.39 11.816 26.39 26.39 0 14.576-11.815 26.392-26.39 26.392-14.575 0-26.39-11.816-26.39-26.391 0-14.575 11.815-26.39 26.39-26.39z" clip-path="url(&quot;#hbr2b&quot;)"/></g><g opacity=".03"><path fill="none" stroke="#f9895d" stroke-miterlimit="50" stroke-width="2" d="M35 0c19.33 0 35 15.67 35 35S54.33 70 35 70 0 54.33 0 35 15.67 0 35 0z" clip-path="url(&quot;#hbr2c&quot;)"/></g></g></svg>